<svg width="216" height="216" viewBox="0 0 216 216" fill="none" xmlns="http://www.w3.org/2000/svg">
<path d="M100.944 108H128.622V214.009C121.945 215.3 115.056 215.999 108 215.999C105.626 215.999 103.279 215.895 100.944 215.745V140.562V108Z" fill="#ED1D24"/>
<path d="M145.447 74.8943V6.67709C186.634 21.9048 215.999 61.5196 215.999 107.999C215.999 143.183 199.167 174.427 173.125 194.145V74.8943H145.447Z" fill="#0092C8"/>
<path d="M64.0402 9.35583V140.563V206.644C26.3106 189.802 0 151.986 0 107.999C0 64.0135 26.3106 26.1959 64.0402 9.35583Z" fill="#0092C8"/>
<path d="M128.623 74.8943V107.999H100.945V0.255341C103.279 0.104225 105.626 5.34058e-05 108 5.34058e-05C121.167 5.34058e-05 133.78 2.36366 145.447 6.67711V74.8943H128.623Z" fill="#003D58"/>
<path d="M100.944 140.562V215.744C87.8705 214.9 75.4377 211.73 64.0393 206.643V140.562H100.944Z" fill="white"/>
<path d="M100.944 108V140.562H64.0393V9.35637C75.4377 4.26825 87.8705 1.09918 100.944 0.254089V108Z" fill="#FEDA00"/>
<path d="M128.623 74.8942H145.447H173.125V194.145C160.24 203.9 145.099 210.821 128.623 214.009V107.999V74.8942Z" fill="white"/>
</svg>
